<svg viewBox="0 0 15.1594 17" xmlns="http://www.w3.org/2000/svg" xmlns:xlink="http://www.w3.org/1999/xlink" width="15.159424" height="17.000000" fill="none">
	<rect id="instagram-brands 1" width="15.159375" height="17.000000" x="0.000000" y="0.000000" fill="rgb(255,255,255)" fill-opacity="0" />
	<path id="Vector" d="M7.58317 4.68159C5.43108 4.68159 3.69519 6.38491 3.69519 8.49663C3.69519 10.6083 5.43108 12.3117 7.58317 12.3117C9.73526 12.3117 11.4711 10.6083 11.4711 8.49663C11.4711 6.38491 9.73526 4.68159 7.58317 4.68159ZM7.58317 10.9769C6.19243 10.9769 5.05548 9.8646 5.05548 8.49663C5.05548 7.12866 6.18905 6.01636 7.58317 6.01636C8.97729 6.01636 10.1109 7.12866 10.1109 8.49663C10.1109 9.8646 8.97391 10.9769 7.58317 10.9769ZM12.537 4.52554C12.537 5.02026 12.131 5.41538 11.6302 5.41538C11.126 5.41538 10.7233 5.01694 10.7233 4.52554C10.7233 4.03413 11.1294 3.63569 11.6302 3.63569C12.131 3.63569 12.537 4.03413 12.537 4.52554ZM15.1121 5.42866C15.0546 4.23667 14.7771 3.18081 13.8872 2.31089C13.0006 1.44097 11.9246 1.1687 10.7098 1.10894C9.45779 1.03921 5.70517 1.03921 4.45316 1.10894C3.24177 1.16538 2.16572 1.43765 1.27579 2.30757C0.385849 3.17749 0.111762 4.23335 0.0508533 5.42534C-0.0202063 6.65386 -0.0202063 10.3361 0.0508533 11.5646C0.108378 12.7566 0.385849 13.8124 1.27579 14.6824C2.16572 15.5523 3.23838 15.8246 4.45316 15.8843C5.70517 15.9541 9.45779 15.9541 10.7098 15.8843C11.9246 15.8279 13.0006 15.5556 13.8872 14.6824C14.7737 13.8124 15.0512 12.7566 15.1121 11.5646C15.1832 10.3361 15.1832 6.65718 15.1121 5.42866ZM13.4947 12.8828C13.2307 13.5335 12.7198 14.0349 12.0532 14.2972C11.0549 14.6857 8.68628 14.596 7.58317 14.596C6.48005 14.596 4.10802 14.6824 3.11318 14.2972C2.44996 14.0382 1.93901 13.5369 1.67169 12.8828C1.27579 11.9033 1.36715 9.57905 1.36715 8.49663C1.36715 7.41421 1.27917 5.08667 1.67169 4.1105C1.93562 3.45972 2.44658 2.95835 3.11318 2.69604C4.1114 2.30757 6.48005 2.39722 7.58317 2.39722C8.68628 2.39722 11.0583 2.31089 12.0532 2.69604C12.7164 2.95503 13.2273 3.4564 13.4947 4.1105C13.8906 5.08999 13.7992 7.41421 13.7992 8.49663C13.7992 9.57905 13.8906 11.9066 13.4947 12.8828Z" fill="rgb(0,0,0)" fill-rule="nonzero" />
</svg>
