<svg viewBox="0 0 12.1274 16" xmlns="http://www.w3.org/2000/svg" xmlns:xlink="http://www.w3.org/1999/xlink" width="12.127441" height="16.000000" fill="none">
	<rect id="pinterest-p-brands 1" width="12.127501" height="16.000000" x="0.000000" y="0.000000" fill="rgb(255,255,255)" fill-opacity="0" />
	<path id="Vector" d="M6.44273 0.203125C3.20242 0.203125 0 2.34063 0 5.8C0 8 1.25065 9.25 2.00862 9.25C2.32128 9.25 2.5013 8.3875 2.5013 8.14375C2.5013 7.85313 1.7528 7.23438 1.7528 6.025C1.7528 3.5125 3.68562 1.73125 6.18692 1.73125C8.33766 1.73125 9.92939 2.94062 9.92939 5.1625C9.92939 6.82187 9.25669 9.93437 7.07753 9.93437C6.29114 9.93437 5.61844 9.37187 5.61844 8.56563C5.61844 7.38438 6.45221 6.24062 6.45221 5.02187C6.45221 2.95312 3.48666 3.32812 3.48666 5.82812C3.48666 6.35313 3.55298 6.93437 3.78984 7.4125C3.35401 9.26875 2.4634 12.0344 2.4634 13.9469C2.4634 14.5375 2.54867 15.1188 2.60552 15.7094C2.7129 15.8281 2.65921 15.8156 2.82343 15.7563C4.41517 13.6 4.35832 13.1781 5.07839 10.3562C5.46685 11.0875 6.47116 11.4812 7.26703 11.4812C10.621 11.4812 12.1275 8.24688 12.1275 5.33125C12.1275 2.22813 9.41776 0.203125 6.44273 0.203125Z" fill="rgb(0,0,0)" fill-rule="nonzero" />
</svg>
