<svg viewBox="0 0 16.17 16" xmlns="http://www.w3.org/2000/svg" xmlns:xlink="http://www.w3.org/1999/xlink" width="16.170044" height="16.000000" fill="none">
	<rect id="twitter-brands 1" width="16.170000" height="16.000000" x="0.000000" y="0.000000" fill="rgb(255,255,255)" fill-opacity="0" />
	<path id="Vector" d="M14.5078 4.741C14.5181 4.88313 14.5181 5.02528 14.5181 5.16741C14.5181 9.50241 11.1836 14.4973 5.08903 14.4973C3.21142 14.4973 1.46721 13.9593 0 13.0253C0.266773 13.0557 0.523251 13.0659 0.800289 13.0659C2.34955 13.0659 3.77573 12.5481 4.91461 11.6649C3.45766 11.6344 2.2367 10.6903 1.81603 9.39075C2.02125 9.42119 2.22644 9.4415 2.44192 9.4415C2.73946 9.4415 3.03702 9.40088 3.31403 9.32985C1.79553 9.02525 0.656622 7.70547 0.656622 6.11157L0.656622 6.07097C1.09779 6.31463 1.61084 6.46691 2.15459 6.48719C1.26195 5.89835 0.67715 4.89329 0.67715 3.75622C0.67715 3.1471 0.841282 2.58872 1.12858 2.10141C2.75995 4.09125 5.21214 5.39072 7.96183 5.53288C7.91054 5.28922 7.87975 5.03544 7.87975 4.78163C7.87975 2.9745 9.35722 1.50244 11.1938 1.50244C12.148 1.50244 13.0098 1.89838 13.6152 2.53797C14.3641 2.39585 15.0823 2.12172 15.7185 1.7461C15.4722 2.50754 14.949 3.14713 14.2616 3.55319C14.9285 3.48216 15.5749 3.29938 16.1699 3.0456C15.7186 3.69532 15.1542 4.27397 14.5078 4.741Z" fill="rgb(0,0,0)" fill-rule="nonzero" />
</svg>
